<?xml version="1.0" encoding="iso-8859-1"?>
<!-- Uploaded to: SVG Repo, www.svgrepo.com, Generator: SVG Repo Mixer Tools -->
<svg height="800px" width="800px" version="1.1" id="Layer_1" xmlns="http://www.w3.org/2000/svg" xmlns:xlink="http://www.w3.org/1999/xlink" 
	 viewBox="0 0 507.732 507.732" xml:space="preserve">
<path style="fill:#BF360C;" d="M305.429,163.711v0.4c0,4-0.4,8-0.4,12c0,1.2-0.4,2.8-0.4,4c0,2.4-0.4,4.8-0.8,7.2
	c-0.4,2-0.4,3.6-0.8,5.6c-0.4,1.6-0.4,3.2-0.8,4.8c-6,38-21.6,74.4-46.4,107.6c14-10,26-12.8,34-13.2c-0.4-0.4-0.8-0.8-0.8-1.2
	c-2.4-3.6-3.2-8.8-0.8-13.6c19.6-37.2,28.8-76.4,28.8-116.8v-0.4c0-3.6,0.8-7.6,3.2-11.2l-2.4-27.2c-2.8-3.2-3.6-7.6-3.2-11.6
	c-8,1.6-14.8,0-19.6-2c0.4,0.8,1.2,1.6,1.6,2.8C306.229,126.511,305.429,146.111,305.429,163.711z"/>
<g>
	<path style="fill:#FFCDD2;" d="M305.029,176.111c0.4-4,0.4-8,0.4-12C305.429,168.111,305.029,172.111,305.029,176.111z"/>
	<path style="fill:#FFCDD2;" d="M303.829,187.711c0.4-2.4,0.4-4.8,0.8-7.2C304.629,182.511,304.229,185.311,303.829,187.711z"/>
	<path style="fill:#FFCDD2;" d="M302.629,197.711c0.4-1.6,0.4-3.2,0.8-4.8C303.029,194.511,303.029,196.111,302.629,197.711z"/>
</g>
<path style="fill:#EF5350;" d="M293.829,113.311c-1.6-2.8-3.6-5.2-5.6-7.6c-10.8-11.2-27.6-16.8-53.2-16.8
	c-18.4,0-40.8,2.8-67.2,8.8c-106.4,23.6-121.2,99.2-138.4,186.8c-5.2,27.6-10.8,56-20,83.6c-5.2,16.8-4.8,30,2,39.2
	c7.2,9.6,19.6,14.8,38.4,14.8c56,0,142-42.4,197.2-112c32-40.4,54-90,54-145.6v-0.4
	C301.429,146.911,302.229,127.711,293.829,113.311z"/>
<g>
	<path style="fill:#FFCDD2;" d="M303.429,193.311c0.4-2,0.4-3.6,0.8-5.6C303.829,189.311,303.429,191.311,303.429,193.311z"/>
	<path style="fill:#FFCDD2;" d="M305.429,163.711c0-17.6,0.8-37.2-8-52.4c-0.4-0.8-1.2-2-1.6-2.8c-0.8-0.4-1.6-0.8-2-0.8
		c12,15.6,12,37.2,12,56.8L305.429,163.711L305.429,163.711z"/>
	<path style="fill:#FFCDD2;" d="M253.429,307.711c0.8-0.8,2-1.6,2.8-2c24.8-33.2,40.4-70,46.4-107.6
		C296.229,239.311,277.829,276.511,253.429,307.711z"/>
	<path style="fill:#FFCDD2;" d="M304.629,180.111c0-1.2,0.4-2.8,0.4-4C305.029,177.311,304.629,178.911,304.629,180.111z"/>
	<path style="fill:#FFCDD2;" d="M302.629,197.711c0.4-1.6,0.4-3.2,0.8-4.8c0.4-2,0.4-3.6,0.8-5.6c0.4-2.4,0.4-4.8,0.8-7.2
		c0-1.6,0.4-2.8,0.4-4c0.4-4,0.4-8,0.4-12c0-19.6,0-41.2-12-56.8c-2.4-1.2-4-2-4.8-2.8l-0.4,0.8c2,2.4,4,4.8,5.6,7.6
		c8.4,14.4,7.6,33.6,7.6,50.4v0.4c0,55.6-22,105.2-54,145.6l-0.8,4.4c2.4-2.4,4.8-4.4,7.2-6
		C277.829,276.511,296.229,239.311,302.629,197.711z"/>
</g>
<path style="fill:#E57373;" d="M497.829,112.111c-9.2-22-33.6-30-68.4-23.2c-41.2,8.4-70.4,12-91.6,14.8c-3.6,0.4-7.2,0.8-10.4,1.2
	h-0.4c-4.4,0.8-6.4,2.8-6.8,3.6c-2,3.6-0.8,8.8,0,12.8l-2.4,0.8l1.2,22.8l2.8,4c0,4-0.8,7.6-0.8,11.6v0.4c0,26.4-4,52.8-12.4,78
	c-4.4,13.6-10,27.2-17.2,40.4c-1.6,3.2-1.2,6.8,0.4,9.6c1.6,2.4,4.8,3.6,8.8,3.6c0.4,0,0.8,0,0.8,0c43.2-0.8,88-16,129.6-44.8
	C488.629,208.511,511.829,145.711,497.829,112.111z"/>
<g>
	<path style="fill:#FFCDD2;" d="M301.429,292.911c0.4,0,0.4,0,0.4,0l0,0C301.429,292.911,301.429,292.911,301.429,292.911
		C301.029,292.911,301.029,292.911,301.429,292.911z"/>
	<path style="fill:#FFCDD2;" d="M327.029,104.911L327.029,104.911c-3.2,0.4-5.2,1.2-6.8,2.8c0,0-0.4,0.4-0.4,0.8
		C320.629,107.711,322.629,105.711,327.029,104.911z"/>
</g>
<path style="fill:#BF360C;" d="M275.029,300.111c4,7.6,2,21.6,0.8,27.2c9.2,1.2,18.8-1.6,22.8-2.8c-2-4.8-5.6-16.8-2-28
	C293.429,296.111,285.429,296.111,275.029,300.111z"/>
<g>
	<path style="fill:#FFCDD2;" d="M274.229,298.511c0.4,0.4,0.4,0.8,0.8,1.2c10-3.6,18-3.6,21.6-3.2l0,0c-0.8,0-1.6-0.4-2.4-0.8
		L274.229,298.511z"/>
	<path style="fill:#FFCDD2;" d="M296.629,296.511c0-0.4,0.4-0.8,0.4-1.2l-2.8,0.4C295.029,296.111,295.829,296.111,296.629,296.511z
		"/>
</g>
<path d="M51.029,427.711c-17.2,0-30.8-4-39.6-12c-8.4-7.6-16.4-22.4-7.6-49.6c8.8-27.2,14.4-55.6,19.6-83.2
	c16.8-86,32.8-167.2,143.2-191.2c60.8-13.6,101.2-11.6,122.4,5.6c20.4,16.4,20.4,42.8,20.4,66.4v0.4c0,120.8-96,206.8-178,243.2
	C101.429,420.911,73.429,427.711,51.029,427.711z M235.029,90.911c-18.4,0-40.4,2.8-66.8,8.8c-105.2,23.2-120,98-136.8,185.2
	c-5.6,27.6-10.8,56-20,84c-6,18.8-4,32.8,5.6,41.2c18,16,62.8,12,111.6-9.6c80-35.6,173.2-118.8,173.2-236v-0.4c0-21.6,0-46-17.6-60
	C273.029,94.911,257.029,90.911,235.029,90.911z"/>
<path d="M245.829,321.311c-1.2,0-2-0.4-2.8-1.2c-1.6-1.6-1.6-4,0-5.6c26.8-27.2,52.4-24.4,56-23.6c44,0,89.2-15.6,131.2-44.4
	c55.6-38.4,79.6-101.2,65.6-133.6c-8.8-20.8-32.4-28.8-66-22c-41.2,8.4-70.4,12-91.6,14.8c-3.6,0.4-7.2,0.8-10.4,1.2
	c-4.8,0.8-6,2.8-6,2.8c-0.4,1.2-1.2,1.6-2.4,2c-18.8,5.2-32.4-5.6-33.2-6c-1.6-1.2-2-4-0.8-5.6s4-2,5.6-0.8c0.4,0.4,10.4,8,24.4,4.8
	c1.6-2,4.8-4.8,11.2-5.6c3.2-0.4,6.4-0.8,10.4-1.2c21.2-2.8,50-6.4,91.2-14.8c51.2-10,68.8,12.4,74.8,26.8
	c17.2,40-14.4,105.6-68.4,143.2c-43.2,30-90.4,46-136,46c-0.4,0-0.4,0-0.8,0c-0.8,0-24-4.4-49.2,21.2
	C247.829,320.911,246.629,321.311,245.829,321.311z"/>
<path d="M300.629,298.911c-7.6,0-11.2-4-12.8-6.4c-2.8-4.4-2.8-10.4,0-15.6c19.6-36.8,29.6-76,29.6-116v-0.4c0-3.6,0-7.6,0-11.2
	c0-2.4,1.6-4,4-4s4,1.6,4,4c0,4,0,7.6,0,11.2v0.4c0,41.2-10.4,81.6-30.4,119.6c-1.2,2.4-1.6,5.6,0,7.6c1.6,2.4,4.8,2.8,6.8,2.4
	c2,0,4,1.6,4.4,3.6c0,2.4-1.6,4-3.6,4.4C301.429,298.911,301.029,298.911,300.629,298.911z"/>
<path d="M318.629,126.511c-2,0-3.6-1.2-4-3.2v-0.8c-1.2-5.2-2.8-12.8,1.6-18.4c2.4-3.2,6.4-4.8,11.2-5.2c2,0,4,1.6,4.4,3.6
	c0,2.4-1.6,4-3.6,4.4c-2.8,0-4.4,0.8-5.6,2c-2,2.8-0.8,8,0,11.6l0.4,0.8c0.4,2-0.8,4.4-3.2,4.8
	C319.029,126.511,318.629,126.511,318.629,126.511z"/>
<path d="M280.629,333.311c-2.4,0-5.2,0-7.6-0.8c-1.2,0-2-0.8-2.8-1.6c-0.4-0.8-0.8-2-0.4-3.2c2-8.4,3.2-22.4-0.4-26.4
	c-1.6-1.6-1.2-4,0.4-5.6c1.6-1.6,4-1.2,5.6,0.4c6,6.8,4.8,21.2,3.2,29.2c6.8,0.4,13.6-1.2,17.6-2.4c-2-6.4-5.2-19.2-0.4-30
	c0.8-2,3.2-2.8,5.2-2s2.8,3.2,2,5.2c-5.2,11.6,1.6,27.2,2,27.6c0.4,1.2,0.4,2,0,3.2s-1.2,2-2.4,2.4
	C302.229,329.711,291.829,333.311,280.629,333.311z"/>
</svg>